<svg xmlns="http://www.w3.org/2000/svg" xmlns:xlink="http://www.w3.org/1999/xlink" width="64" height="64" viewBox="0 0 64 64"><defs><linearGradient id="e"><stop offset="0" style="stop-color:#ff8000;stop-opacity:1"/><stop offset="1" style="stop-color:#ff8500;stop-opacity:0"/></linearGradient><linearGradient id="f"><stop offset="0" style="stop-color:#ff9b00;stop-opacity:1"/><stop offset="1" style="stop-color:#cd6d00;stop-opacity:1"/></linearGradient><linearGradient id="d"><stop offset="0" style="stop-color:#0f0;stop-opacity:1"/><stop offset="1" style="stop-color:#00cd00;stop-opacity:1"/></linearGradient><linearGradient id="c"><stop offset="0" style="stop-color:#0f0;stop-opacity:1"/><stop offset="1" style="stop-color:#0f0;stop-opacity:0"/></linearGradient><linearGradient id="b"><stop offset="0" style="stop-color:#e6e6e6;stop-opacity:1"/><stop offset="1" style="stop-color:#b9b9b9;stop-opacity:1"/></linearGradient><linearGradient id="a"><stop offset="0" style="stop-color:#c5c5c5;stop-opacity:1"/><stop offset="1" style="stop-color:#e2e2e2;stop-opacity:1"/></linearGradient><linearGradient xlink:href="#a" id="g" x1="10" x2="27.04" y1="4" y2="23.015" gradientTransform="translate(15.468)scale(.75)" gradientUnits="userSpaceOnUse"/><linearGradient xlink:href="#b" id="h" x1="45.564" x2="45.613" y1="104" y2="40" gradientTransform="matrix(.6 0 0 .75 9.2 -18)" gradientUnits="userSpaceOnUse"/><linearGradient xlink:href="#d" id="j" x1="46" x2="50" y1="44" y2="48" gradientTransform="translate(-4 -26)" gradientUnits="userSpaceOnUse"/><linearGradient xlink:href="#f" id="n" x1="14" x2="16" y1="9" y2="11" gradientTransform="matrix(2 0 0 2 14 10)" gradientUnits="userSpaceOnUse"/><linearGradient xlink:href="#d" id="o" x1="14" x2="16" y1="13" y2="15" gradientTransform="matrix(2 0 0 2 14 12)" gradientUnits="userSpaceOnUse"/><linearGradient xlink:href="#f" id="p" x1="14" x2="16" y1="17" y2="19" gradientTransform="matrix(2 0 0 2 14 14)" gradientUnits="userSpaceOnUse"/><radialGradient xlink:href="#c" id="i" cx="48" cy="46" r="3" fx="48" fy="46" gradientTransform="translate(-20 -41.333)scale(1.33333)" gradientUnits="userSpaceOnUse"/><radialGradient xlink:href="#c" id="l" cx="15" cy="14" r="2" fx="15" fy="14" gradientTransform="matrix(2 0 0 2 14 12)" gradientUnits="userSpaceOnUse"/><radialGradient xlink:href="#e" id="k" cx="15" cy="10" r="2" fx="15" fy="10" gradientTransform="matrix(2 0 0 2 14 10)" gradientUnits="userSpaceOnUse"/><radialGradient xlink:href="#e" id="m" cx="15" cy="18" r="2" fx="15" fy="18" gradientTransform="matrix(2 0 0 2 14 14)" gradientUnits="userSpaceOnUse"/></defs><path d="M22.468 4h19c1.662 0 2.204.707 3 2l5.5 8.93L14 15.07 19.468 6c.858-1.423 1.338-2 3-2" style="fill:url(#g);stroke-width:.75;stroke-linecap:round;stroke-linejoin:round"/><rect width="36" height="48" x="14" y="12" ry="4" style="fill:url(#h);fill-opacity:1;stroke-width:.67082;stroke-linecap:round;stroke-linejoin:round"/><rect width="32" height="44" x="16" y="14" ry="2" style="fill:#4d4d4d;fill-opacity:1;stroke-width:1.62019;stroke-linecap:round;stroke-linejoin:round"/><circle cx="44" cy="20" r="4" style="opacity:1;fill:url(#i);fill-opacity:1;stroke-width:1.33333;stroke-linecap:round;stroke-linejoin:round"/><circle cx="44" cy="20" r="2" style="fill:url(#j);fill-opacity:1;stroke-width:1;stroke-linecap:round;stroke-linejoin:round"/><path d="M19 19c-.554 0-1 .446-1 1s.446 1 1 1h18c.554 0 1-.446 1-1s-.446-1-1-1zm0 10c-.554 0-1 .446-1 1s.446 1 1 1h18c.554 0 1-.446 1-1s-.446-1-1-1zm0 10c-.554 0-1 .446-1 1s.446 1 1 1h18c.554 0 1-.446 1-1s-.446-1-1-1zm0 10c-.554 0-1 .446-1 1s.446 1 1 1h18c.554 0 1-.446 1-1s-.446-1-1-1z" style="opacity:1;fill:#2c2c2c;fill-opacity:1;stroke-width:2"/><circle cx="44" cy="30" r="4" style="opacity:1;fill:url(#k);fill-opacity:1;stroke-width:2"/><circle cx="44" cy="40" r="4" style="opacity:1;fill:url(#l);fill-opacity:1;stroke-width:2"/><circle cx="44" cy="50" r="4" style="opacity:1;fill:url(#m);fill-opacity:1;stroke-width:2"/><circle cx="44" cy="30" r="2" style="opacity:1;fill:url(#n);fill-opacity:1;stroke-width:2"/><circle cx="44" cy="40" r="2" style="opacity:1;fill:url(#o);fill-opacity:1;stroke-width:2"/><circle cx="44" cy="50" r="2" style="opacity:1;fill:url(#p);fill-opacity:1;stroke-width:2"/></svg>