<svg xmlns="http://www.w3.org/2000/svg" width="64" height="64" fill="none" viewBox="-3.31 -3.31 70.621 70.621">
    <defs>
        <linearGradient id="a" x1="59.676" x2="1.08" y1="4.067" y2="62.664" gradientUnits="userSpaceOnUse">
            <stop offset=".31" stop-color="#ff45ed"/>
            <stop offset=".83" stop-color="#6b57ff"/>
        </linearGradient>
        <linearGradient id="b" x1="64.391" x2="39.607" y1="56.329" y2="2.875" gradientUnits="userSpaceOnUse">
            <stop offset=".3" stop-color="#fdb60d"/>
            <stop offset=".7" stop-color="#ff45ed"/>
        </linearGradient>
    </defs>
    <path fill="url(#a)" d="M4.125 64h34.128a4.13 4.13 0 0 0 3.8-2.52L57.85 24.057c.219-.518.33-1.076.324-1.638l-.15-18.329A4.125 4.125 0 0 0 53.9 0H36.234c-.806 0-1.593.236-2.267.678L1.86 21.787A4.13 4.13 0 0 0 0 25.234v34.641A4.125 4.125 0 0 0 4.125 64"/>
    <path fill="url(#b)" d="M49.013 58h10.862A4.125 4.125 0 0 0 64 53.875V41.309q0-.3-.044-.598L58.508 3.527A4.125 4.125 0 0 0 54.427 0H39.029a4.125 4.125 0 0 0-4.125 4.126l.005 18.505c0 .425.066.848.195 1.253l9.979 31.246a4.13 4.13 0 0 0 3.93 2.87"/>
    <path fill="#fdb60d" d="M47.55 58h12.259a4.125 4.125 0 0 0 4.124-4.19L64 43c-.018-1.181-.785-2.531-1.682-3.3L24.16 6.993A4.13 4.13 0 0 0 21.474 6H10.125A4.125 4.125 0 0 0 6 10.125v11.003c0 1.19.514 2.321 1.409 3.105l37.425 32.746A4.12 4.12 0 0 0 47.55 58"/>
    <path fill="#000" d="M52 12H12v40h40z"/>
    <path fill="#fff" fill-rule="evenodd" d="M17.013 16.994h5.713q2.133 0 3.821.964a6.9 6.9 0 0 1 2.643 2.675q.953 1.71.953 3.864t-.953 3.865a6.9 6.9 0 0 1-2.643 2.674q-1.69.964-3.821.964h-5.713zM25.04 28.87q1.008-.6 1.554-1.72.547-1.12.547-2.653c0-1.533-.182-1.907-.547-2.653q-.546-1.12-1.554-1.721-1.008-.6-2.348-.6h-2.755v9.947h2.755q1.34 0 2.348-.6" clip-rule="evenodd"/>
    <path fill="#fff" d="M33 44H17v3h16zm3.306-27.006h-4.072V32h2.883V21.292l-.043-.707L38.525 32h2.123l3.494-11.49-.043.782V32h2.894V16.994h-4.138l-2.98 9.85-.225 1.287-.257-1.286z"/>
</svg>
