<?xml version="1.0" encoding="UTF-8" standalone="no"?>
<svg
   width="64"
   height="64"
   viewBox="0 0 64 64"
   version="1.1"
   id="svg3"
   sodipodi:docname="affinity.svg"
   inkscape:version="1.4.4 (dcaf3e7d9e, 2026-05-05)"
   xml:space="preserve"
   inkscape:export-filename="../wave-icons/apps/scalable/affinity.svg"
   inkscape:export-xdpi="96"
   inkscape:export-ydpi="96"
   xmlns:inkscape="http://www.inkscape.org/namespaces/inkscape"
   xmlns:sodipodi="http://sodipodi.sourceforge.net/DTD/sodipodi-0.dtd"
   xmlns="http://www.w3.org/2000/svg"
   xmlns:svg="http://www.w3.org/2000/svg"><defs
     id="defs3" /><sodipodi:namedview
     id="namedview3"
     pagecolor="#ffffff"
     bordercolor="#000000"
     borderopacity="0.25"
     inkscape:showpageshadow="2"
     inkscape:pageopacity="0.0"
     inkscape:pagecheckerboard="0"
     inkscape:deskcolor="#d1d1d1"
     showgrid="false"
     inkscape:zoom="10.164063"
     inkscape:cx="23.612606"
     inkscape:cy="53.866257"
     inkscape:current-layer="svg3"><inkscape:grid
       id="grid3"
       units="px"
       originx="0"
       originy="0"
       spacingx="1"
       spacingy="1"
       empcolor="#0099e5"
       empopacity="0.30196078"
       color="#0099e5"
       opacity="0.14901961"
       empspacing="4"
       enabled="true"
       visible="false"
       dotted="false" /></sodipodi:namedview><rect
     x="4"
     y="4"
     width="56"
     height="56"
     rx="12"
     fill="black"
     opacity="0.25"
     id="rect1"
     style="opacity:1;fill:#a7f175;fill-opacity:1" /><path
     d="m 30.3452,42.728433 c -2.4297,0 -3.9753,-1.473967 -3.9753,-3.343434 0,-8.000299 21.038266,-9.601899 21.038266,-18.098033 0,-5.183033 -6.0039,-7.416966 -13.667966,-7.416966 -4.662,0 -9.933234,0.862867 -14.8288,2.406833 v 10.135533 c 7.214433,-5.254666 15.230133,-7.504 20.393333,-7.504 3.2466,0 5.4495,0.9058 5.4495,2.528867 0,6.686867 -29.0157,5.6273 -29.0157,20.076466 0,5.5384 3.808233,8.7115 9.166033,8.7115 8.104134,0 14.234033,-7.8757 18.819967,-17.475966 l 0.929133,0.333667 c -2.415233,5.8667 -7.413233,12.299466 -8.3867,16.434599 h 10.4335 V 28.124333 h -2.409633 c -3.497667,7.6006 -8.6233,14.604333 -13.945633,14.604333"
     style="clip-rule:evenodd;fill:#000000;fill-rule:nonzero;stroke-width:0.233333;stroke-linejoin:round;stroke-miterlimit:2"
     id="path1-7" /></svg>
